<svg width="1215" height="1082" viewBox="0 0 1215 1082" fill="none" xmlns="http://www.w3.org/2000/svg">
<circle cx="609" cy="541" r="311.5" stroke="url(#paint0_linear_373_2773)" stroke-width="3"/>
<circle cx="609" cy="541" r="372" stroke="url(#paint1_linear_373_2773)" stroke-width="2"/>
<circle cx="609" cy="541" r="444" stroke="url(#paint2_linear_373_2773)" stroke-width="2"/>
<circle cx="609" cy="541" r="540.5" stroke="url(#paint3_linear_373_2773)"/>
<circle cx="609" cy="510" r="197" fill="url(#paint4_linear_373_2773)"/>
<path d="M533.468 592.921C528.719 591.091 523.884 585.902 523.166 581.864C522.856 580.125 522.994 576.93 523.471 574.766C524.889 568.329 590.08 418.757 594.378 412.077C598.205 406.129 602.357 403.496 608.587 403.06C617.553 402.434 624.034 406.697 628.494 416.154C630.642 420.706 656.198 481.4 680.31 539.212C692.926 569.463 694.974 574.976 695.302 579.577C695.667 584.731 695.588 585 692.896 587.841C689.342 591.585 682.343 593.873 676.409 593.227C672.246 592.774 655.296 585.926 626.183 572.935C617.42 569.024 611.222 566.754 609.159 566.698C606.689 566.633 598.6 569.839 575.144 580.187C542.382 594.64 539.895 595.4 533.468 592.921Z" fill="url(#paint5_radial_373_2773)"/>
<path d="M602.398 636.183C598.65 634.368 567.955 601.6 569.234 600.78C569.727 600.466 574.111 598.447 578.978 596.296C583.843 594.146 591.783 590.334 596.619 587.827C608.425 581.706 611.777 581.768 625.298 588.341C631.023 591.124 638.517 594.678 641.952 596.239C645.386 597.799 648.812 599.613 649.564 600.269C650.629 601.194 647.634 605.01 636.032 617.513C627.287 626.937 619.415 634.428 616.972 635.65C612.078 638.098 606.755 638.294 602.398 636.183Z" fill="url(#paint6_radial_373_2773)"/>
<rect x="34" y="717" width="109" height="35" rx="17.5" fill="white" fill-opacity="0.1"/>
<rect x="34" y="717" width="109" height="35" rx="17.5" stroke="url(#paint7_linear_373_2773)"/>
<path d="M69.1172 728.625V740H67.1562V728.625H69.1172ZM73.7578 733.602V735.156H68.6172V733.602H73.7578ZM74.4062 728.625V730.188H68.6172V728.625H74.4062ZM77.7969 731.547V740H75.9062V731.547H77.7969ZM75.7812 729.328C75.7812 729.042 75.875 728.805 76.0625 728.617C76.2552 728.424 76.5208 728.328 76.8594 728.328C77.1927 728.328 77.4557 728.424 77.6484 728.617C77.8411 728.805 77.9375 729.042 77.9375 729.328C77.9375 729.609 77.8411 729.844 77.6484 730.031C77.4557 730.219 77.1927 730.312 76.8594 730.312C76.5208 730.312 76.2552 730.219 76.0625 730.031C75.875 729.844 75.7812 729.609 75.7812 729.328ZM85.2734 731.547H86.9844V739.766C86.9844 740.526 86.8229 741.172 86.5 741.703C86.1771 742.234 85.7266 742.638 85.1484 742.914C84.5703 743.195 83.901 743.336 83.1406 743.336C82.8177 743.336 82.4583 743.289 82.0625 743.195C81.6719 743.102 81.2917 742.951 80.9219 742.742C80.5573 742.539 80.2526 742.271 80.0078 741.938L80.8906 740.828C81.1927 741.188 81.526 741.451 81.8906 741.617C82.2552 741.784 82.638 741.867 83.0391 741.867C83.4714 741.867 83.8385 741.786 84.1406 741.625C84.4479 741.469 84.6849 741.237 84.8516 740.93C85.0182 740.622 85.1016 740.247 85.1016 739.805V733.461L85.2734 731.547ZM79.5312 735.867V735.703C79.5312 735.062 79.6094 734.479 79.7656 733.953C79.9219 733.422 80.1458 732.966 80.4375 732.586C80.7292 732.201 81.0833 731.906 81.5 731.703C81.9167 731.495 82.388 731.391 82.9141 731.391C83.4609 731.391 83.9271 731.49 84.3125 731.688C84.7031 731.885 85.0286 732.169 85.2891 732.539C85.5495 732.904 85.7526 733.341 85.8984 733.852C86.0495 734.357 86.1615 734.919 86.2344 735.539V736.062C86.1667 736.667 86.0521 737.219 85.8906 737.719C85.7292 738.219 85.5156 738.651 85.25 739.016C84.9844 739.38 84.6562 739.661 84.2656 739.859C83.8802 740.057 83.4245 740.156 82.8984 740.156C82.3828 740.156 81.9167 740.049 81.5 739.836C81.0885 739.622 80.7344 739.323 80.4375 738.938C80.1458 738.552 79.9219 738.099 79.7656 737.578C79.6094 737.052 79.5312 736.482 79.5312 735.867ZM81.4141 735.703V735.867C81.4141 736.253 81.4505 736.612 81.5234 736.945C81.6016 737.279 81.7188 737.573 81.875 737.828C82.0365 738.078 82.2396 738.276 82.4844 738.422C82.7344 738.562 83.0286 738.633 83.3672 738.633C83.8099 738.633 84.1719 738.539 84.4531 738.352C84.7396 738.164 84.9583 737.911 85.1094 737.594C85.2656 737.271 85.375 736.911 85.4375 736.516V735.102C85.4062 734.794 85.3411 734.508 85.2422 734.242C85.1484 733.977 85.0208 733.745 84.8594 733.547C84.6979 733.344 84.4948 733.188 84.25 733.078C84.0052 732.964 83.7161 732.906 83.3828 732.906C83.0443 732.906 82.75 732.979 82.5 733.125C82.25 733.271 82.0443 733.471 81.8828 733.727C81.7266 733.982 81.6094 734.279 81.5312 734.617C81.4531 734.956 81.4141 735.318 81.4141 735.703ZM90.8203 733.266V740H88.9375V731.547H90.7109L90.8203 733.266ZM90.5156 735.461L89.875 735.453C89.875 734.87 89.9479 734.331 90.0938 733.836C90.2396 733.341 90.4531 732.911 90.7344 732.547C91.0156 732.177 91.3646 731.893 91.7812 731.695C92.2031 731.492 92.6901 731.391 93.2422 731.391C93.6276 731.391 93.9792 731.448 94.2969 731.562C94.6198 731.672 94.8984 731.846 95.1328 732.086C95.3724 732.326 95.5547 732.633 95.6797 733.008C95.8099 733.383 95.875 733.836 95.875 734.367V740H93.9922V734.531C93.9922 734.12 93.9297 733.797 93.8047 733.562C93.6849 733.328 93.5104 733.161 93.2812 733.062C93.0573 732.958 92.7891 732.906 92.4766 732.906C92.1224 732.906 91.8203 732.974 91.5703 733.109C91.3255 733.245 91.125 733.43 90.9688 733.664C90.8125 733.898 90.6979 734.169 90.625 734.477C90.5521 734.784 90.5156 735.112 90.5156 735.461ZM95.7578 734.961L94.875 735.156C94.875 734.646 94.9453 734.164 95.0859 733.711C95.2318 733.253 95.4427 732.852 95.7188 732.508C96 732.159 96.3464 731.885 96.7578 731.688C97.1693 731.49 97.6406 731.391 98.1719 731.391C98.6042 731.391 98.9896 731.451 99.3281 731.57C99.6719 731.685 99.9635 731.867 100.203 732.117C100.443 732.367 100.625 732.693 100.75 733.094C100.875 733.49 100.938 733.969 100.938 734.531V740H99.0469V734.523C99.0469 734.096 98.9844 733.766 98.8594 733.531C98.7396 733.297 98.5677 733.135 98.3438 733.047C98.1198 732.953 97.8516 732.906 97.5391 732.906C97.2474 732.906 96.9896 732.961 96.7656 733.07C96.5469 733.174 96.362 733.323 96.2109 733.516C96.0599 733.703 95.9453 733.919 95.8672 734.164C95.7943 734.409 95.7578 734.674 95.7578 734.961ZM107.641 738.305V734.273C107.641 733.971 107.586 733.711 107.477 733.492C107.367 733.273 107.201 733.104 106.977 732.984C106.758 732.865 106.482 732.805 106.148 732.805C105.841 732.805 105.576 732.857 105.352 732.961C105.128 733.065 104.953 733.206 104.828 733.383C104.703 733.56 104.641 733.76 104.641 733.984H102.766C102.766 733.651 102.846 733.328 103.008 733.016C103.169 732.703 103.404 732.424 103.711 732.18C104.018 731.935 104.385 731.742 104.812 731.602C105.24 731.461 105.719 731.391 106.25 731.391C106.885 731.391 107.448 731.497 107.938 731.711C108.432 731.924 108.82 732.247 109.102 732.68C109.388 733.107 109.531 733.643 109.531 734.289V738.047C109.531 738.432 109.557 738.779 109.609 739.086C109.667 739.388 109.747 739.651 109.852 739.875V740H107.922C107.833 739.797 107.763 739.539 107.711 739.227C107.664 738.909 107.641 738.602 107.641 738.305ZM107.914 734.859L107.93 736.023H106.578C106.229 736.023 105.922 736.057 105.656 736.125C105.391 736.188 105.169 736.281 104.992 736.406C104.815 736.531 104.682 736.682 104.594 736.859C104.505 737.036 104.461 737.237 104.461 737.461C104.461 737.685 104.513 737.891 104.617 738.078C104.721 738.26 104.872 738.404 105.07 738.508C105.273 738.612 105.518 738.664 105.805 738.664C106.19 738.664 106.526 738.586 106.812 738.43C107.104 738.268 107.333 738.073 107.5 737.844C107.667 737.609 107.755 737.388 107.766 737.18L108.375 738.016C108.312 738.229 108.206 738.458 108.055 738.703C107.904 738.948 107.706 739.182 107.461 739.406C107.221 739.625 106.932 739.805 106.594 739.945C106.26 740.086 105.875 740.156 105.438 740.156C104.885 740.156 104.393 740.047 103.961 739.828C103.529 739.604 103.19 739.305 102.945 738.93C102.701 738.549 102.578 738.12 102.578 737.641C102.578 737.193 102.661 736.797 102.828 736.453C103 736.104 103.25 735.812 103.578 735.578C103.911 735.344 104.318 735.167 104.797 735.047C105.276 734.922 105.823 734.859 106.438 734.859H107.914Z" fill="white"/>
<rect x="1" y="449" width="133" height="35" rx="17.5" fill="white" fill-opacity="0.1"/>
<rect x="1" y="449" width="133" height="35" rx="17.5" stroke="url(#paint8_linear_373_2773)"/>
<path d="M34.9531 460.625H36.7031L39.9922 469.398L43.2734 460.625H45.0234L40.6797 472H39.2891L34.9531 460.625ZM34.1562 460.625H35.8203L36.1094 468.219V472H34.1562V460.625ZM44.1562 460.625H45.8281V472H43.8672V468.219L44.1562 460.625ZM51.6953 472.156C51.0703 472.156 50.5052 472.055 50 471.852C49.5 471.643 49.0729 471.354 48.7188 470.984C48.3698 470.615 48.1016 470.18 47.9141 469.68C47.7266 469.18 47.6328 468.641 47.6328 468.062V467.75C47.6328 467.089 47.7292 466.49 47.9219 465.953C48.1146 465.417 48.3828 464.958 48.7266 464.578C49.0703 464.193 49.4766 463.898 49.9453 463.695C50.4141 463.492 50.9219 463.391 51.4688 463.391C52.0729 463.391 52.6016 463.492 53.0547 463.695C53.5078 463.898 53.8828 464.185 54.1797 464.555C54.4818 464.919 54.7057 465.354 54.8516 465.859C55.0026 466.365 55.0781 466.922 55.0781 467.531V468.336H48.5469V466.984H53.2188V466.836C53.2083 466.497 53.1406 466.18 53.0156 465.883C52.8958 465.586 52.7109 465.346 52.4609 465.164C52.2109 464.982 51.8776 464.891 51.4609 464.891C51.1484 464.891 50.8698 464.958 50.625 465.094C50.3854 465.224 50.1849 465.414 50.0234 465.664C49.862 465.914 49.737 466.216 49.6484 466.57C49.5651 466.919 49.5234 467.312 49.5234 467.75V468.062C49.5234 468.432 49.5729 468.776 49.6719 469.094C49.776 469.406 49.9271 469.68 50.125 469.914C50.3229 470.148 50.5625 470.333 50.8438 470.469C51.125 470.599 51.4453 470.664 51.8047 470.664C52.2578 470.664 52.6615 470.573 53.0156 470.391C53.3698 470.208 53.6771 469.951 53.9375 469.617L54.9297 470.578C54.7474 470.844 54.5104 471.099 54.2188 471.344C53.9271 471.583 53.5703 471.779 53.1484 471.93C52.7318 472.081 52.2474 472.156 51.6953 472.156ZM60.4219 463.547V464.922H55.6562V463.547H60.4219ZM57.0312 461.477H58.9141V469.664C58.9141 469.924 58.9505 470.125 59.0234 470.266C59.1016 470.401 59.2083 470.492 59.3438 470.539C59.4792 470.586 59.638 470.609 59.8203 470.609C59.9505 470.609 60.0755 470.602 60.1953 470.586C60.3151 470.57 60.4115 470.555 60.4844 470.539L60.4922 471.977C60.3359 472.023 60.1536 472.065 59.9453 472.102C59.7422 472.138 59.5078 472.156 59.2422 472.156C58.8099 472.156 58.4271 472.081 58.0938 471.93C57.7604 471.773 57.5 471.521 57.3125 471.172C57.125 470.823 57.0312 470.359 57.0312 469.781V461.477ZM66.6406 470.305V466.273C66.6406 465.971 66.5859 465.711 66.4766 465.492C66.3672 465.273 66.2005 465.104 65.9766 464.984C65.7578 464.865 65.4818 464.805 65.1484 464.805C64.8411 464.805 64.5755 464.857 64.3516 464.961C64.1276 465.065 63.9531 465.206 63.8281 465.383C63.7031 465.56 63.6406 465.76 63.6406 465.984H61.7656C61.7656 465.651 61.8464 465.328 62.0078 465.016C62.1693 464.703 62.4036 464.424 62.7109 464.18C63.0182 463.935 63.3854 463.742 63.8125 463.602C64.2396 463.461 64.7188 463.391 65.25 463.391C65.8854 463.391 66.4479 463.497 66.9375 463.711C67.4323 463.924 67.8203 464.247 68.1016 464.68C68.388 465.107 68.5312 465.643 68.5312 466.289V470.047C68.5312 470.432 68.5573 470.779 68.6094 471.086C68.6667 471.388 68.7474 471.651 68.8516 471.875V472H66.9219C66.8333 471.797 66.763 471.539 66.7109 471.227C66.6641 470.909 66.6406 470.602 66.6406 470.305ZM66.9141 466.859L66.9297 468.023H65.5781C65.2292 468.023 64.9219 468.057 64.6562 468.125C64.3906 468.188 64.1693 468.281 63.9922 468.406C63.8151 468.531 63.6823 468.682 63.5938 468.859C63.5052 469.036 63.4609 469.237 63.4609 469.461C63.4609 469.685 63.513 469.891 63.6172 470.078C63.7214 470.26 63.8724 470.404 64.0703 470.508C64.2734 470.612 64.5182 470.664 64.8047 470.664C65.1901 470.664 65.526 470.586 65.8125 470.43C66.1042 470.268 66.3333 470.073 66.5 469.844C66.6667 469.609 66.7552 469.388 66.7656 469.18L67.375 470.016C67.3125 470.229 67.2057 470.458 67.0547 470.703C66.9036 470.948 66.7057 471.182 66.4609 471.406C66.2214 471.625 65.9323 471.805 65.5938 471.945C65.2604 472.086 64.875 472.156 64.4375 472.156C63.8854 472.156 63.3932 472.047 62.9609 471.828C62.5286 471.604 62.1901 471.305 61.9453 470.93C61.7005 470.549 61.5781 470.12 61.5781 469.641C61.5781 469.193 61.6615 468.797 61.8281 468.453C62 468.104 62.25 467.812 62.5781 467.578C62.9115 467.344 63.3177 467.167 63.7969 467.047C64.276 466.922 64.8229 466.859 65.4375 466.859H66.9141ZM79.1016 462.141L75.7031 472H73.6484L77.9297 460.625H79.2422L79.1016 462.141ZM81.9453 472L78.5391 462.141L78.3906 460.625H79.7109L84.0078 472H81.9453ZM81.7812 467.781V469.336H75.5938V467.781H81.7812ZM90.25 470.25V460H92.1406V472H90.4297L90.25 470.25ZM84.75 467.867V467.703C84.75 467.062 84.8255 466.479 84.9766 465.953C85.1276 465.422 85.3464 464.966 85.6328 464.586C85.9193 464.201 86.2682 463.906 86.6797 463.703C87.0911 463.495 87.5547 463.391 88.0703 463.391C88.5807 463.391 89.0286 463.49 89.4141 463.688C89.7995 463.885 90.1276 464.169 90.3984 464.539C90.6693 464.904 90.8854 465.341 91.0469 465.852C91.2083 466.357 91.3229 466.919 91.3906 467.539V468.062C91.3229 468.667 91.2083 469.219 91.0469 469.719C90.8854 470.219 90.6693 470.651 90.3984 471.016C90.1276 471.38 89.7969 471.661 89.4062 471.859C89.0208 472.057 88.5703 472.156 88.0547 472.156C87.5443 472.156 87.0833 472.049 86.6719 471.836C86.2656 471.622 85.9193 471.323 85.6328 470.938C85.3464 470.552 85.1276 470.099 84.9766 469.578C84.8255 469.052 84.75 468.482 84.75 467.867ZM86.6328 467.703V467.867C86.6328 468.253 86.6667 468.612 86.7344 468.945C86.8073 469.279 86.9193 469.573 87.0703 469.828C87.2214 470.078 87.4167 470.276 87.6562 470.422C87.901 470.562 88.1927 470.633 88.5312 470.633C88.9583 470.633 89.3099 470.539 89.5859 470.352C89.862 470.164 90.0781 469.911 90.2344 469.594C90.3958 469.271 90.5052 468.911 90.5625 468.516V467.102C90.5312 466.794 90.4661 466.508 90.3672 466.242C90.2734 465.977 90.1458 465.745 89.9844 465.547C89.8229 465.344 89.6224 465.188 89.3828 465.078C89.1484 464.964 88.8698 464.906 88.5469 464.906C88.2031 464.906 87.9115 464.979 87.6719 465.125C87.4323 465.271 87.2344 465.471 87.0781 465.727C86.9271 465.982 86.8151 466.279 86.7422 466.617C86.6693 466.956 86.6328 467.318 86.6328 467.703ZM98.8516 469.711C98.8516 469.523 98.8047 469.354 98.7109 469.203C98.6172 469.047 98.4375 468.906 98.1719 468.781C97.9115 468.656 97.526 468.542 97.0156 468.438C96.5677 468.339 96.1562 468.221 95.7812 468.086C95.4115 467.945 95.0938 467.776 94.8281 467.578C94.5625 467.38 94.3568 467.146 94.2109 466.875C94.0651 466.604 93.9922 466.292 93.9922 465.938C93.9922 465.594 94.0677 465.268 94.2188 464.961C94.3698 464.654 94.5859 464.383 94.8672 464.148C95.1484 463.914 95.4896 463.729 95.8906 463.594C96.2969 463.458 96.75 463.391 97.25 463.391C97.9583 463.391 98.5651 463.51 99.0703 463.75C99.5807 463.984 99.9714 464.305 100.242 464.711C100.513 465.112 100.648 465.565 100.648 466.07H98.7656C98.7656 465.846 98.7083 465.638 98.5938 465.445C98.4844 465.247 98.3177 465.089 98.0938 464.969C97.8698 464.844 97.5885 464.781 97.25 464.781C96.9271 464.781 96.6589 464.833 96.4453 464.938C96.237 465.036 96.0807 465.167 95.9766 465.328C95.8776 465.49 95.8281 465.667 95.8281 465.859C95.8281 466 95.8542 466.128 95.9062 466.242C95.9635 466.352 96.0573 466.453 96.1875 466.547C96.3177 466.635 96.4948 466.719 96.7188 466.797C96.9479 466.875 97.2344 466.951 97.5781 467.023C98.224 467.159 98.7786 467.333 99.2422 467.547C99.7109 467.755 100.07 468.026 100.32 468.359C100.57 468.688 100.695 469.104 100.695 469.609C100.695 469.984 100.615 470.328 100.453 470.641C100.297 470.948 100.068 471.216 99.7656 471.445C99.4635 471.669 99.1016 471.844 98.6797 471.969C98.263 472.094 97.7943 472.156 97.2734 472.156C96.5078 472.156 95.8594 472.021 95.3281 471.75C94.7969 471.474 94.3932 471.122 94.1172 470.695C93.8464 470.263 93.7109 469.815 93.7109 469.352H95.5312C95.5521 469.701 95.6484 469.979 95.8203 470.188C95.9974 470.391 96.2161 470.539 96.4766 470.633C96.7422 470.721 97.0156 470.766 97.2969 470.766C97.6354 470.766 97.9193 470.721 98.1484 470.633C98.3776 470.539 98.5521 470.414 98.6719 470.258C98.7917 470.096 98.8516 469.914 98.8516 469.711Z" fill="white"/>
<rect x="247" y="403" width="147" height="35" rx="17.5" fill="white" fill-opacity="0.1"/>
<rect x="247" y="403" width="147" height="35" rx="17.5" stroke="url(#paint9_linear_373_2773)"/>
<path d="M288.891 420.188V424.531C288.729 424.745 288.477 424.979 288.133 425.234C287.794 425.484 287.344 425.701 286.781 425.883C286.219 426.065 285.518 426.156 284.68 426.156C283.966 426.156 283.312 426.036 282.719 425.797C282.125 425.552 281.612 425.195 281.18 424.727C280.753 424.258 280.422 423.688 280.188 423.016C279.953 422.339 279.836 421.568 279.836 420.703V419.914C279.836 419.055 279.943 418.289 280.156 417.617C280.375 416.94 280.688 416.367 281.094 415.898C281.5 415.43 281.99 415.076 282.562 414.836C283.141 414.591 283.794 414.469 284.523 414.469C285.456 414.469 286.227 414.625 286.836 414.938C287.451 415.245 287.924 415.672 288.258 416.219C288.591 416.766 288.802 417.391 288.891 418.094H286.969C286.906 417.698 286.784 417.344 286.602 417.031C286.424 416.719 286.169 416.474 285.836 416.297C285.508 416.115 285.081 416.023 284.555 416.023C284.102 416.023 283.703 416.109 283.359 416.281C283.016 416.453 282.729 416.706 282.5 417.039C282.276 417.372 282.107 417.779 281.992 418.258C281.878 418.737 281.82 419.284 281.82 419.898V420.703C281.82 421.328 281.885 421.883 282.016 422.367C282.151 422.852 282.344 423.26 282.594 423.594C282.849 423.927 283.159 424.18 283.523 424.352C283.888 424.518 284.299 424.602 284.758 424.602C285.206 424.602 285.573 424.565 285.859 424.492C286.146 424.414 286.372 424.323 286.539 424.219C286.711 424.109 286.844 424.005 286.938 423.906V421.648H284.57V420.188H288.891ZM290.516 421.867V421.688C290.516 421.078 290.604 420.513 290.781 419.992C290.958 419.466 291.214 419.01 291.547 418.625C291.885 418.234 292.297 417.932 292.781 417.719C293.271 417.5 293.823 417.391 294.438 417.391C295.057 417.391 295.609 417.5 296.094 417.719C296.583 417.932 296.997 418.234 297.336 418.625C297.674 419.01 297.932 419.466 298.109 419.992C298.286 420.513 298.375 421.078 298.375 421.688V421.867C298.375 422.477 298.286 423.042 298.109 423.562C297.932 424.083 297.674 424.539 297.336 424.93C296.997 425.315 296.586 425.617 296.102 425.836C295.617 426.049 295.068 426.156 294.453 426.156C293.833 426.156 293.279 426.049 292.789 425.836C292.305 425.617 291.893 425.315 291.555 424.93C291.216 424.539 290.958 424.083 290.781 423.562C290.604 423.042 290.516 422.477 290.516 421.867ZM292.398 421.688V421.867C292.398 422.247 292.438 422.607 292.516 422.945C292.594 423.284 292.716 423.581 292.883 423.836C293.049 424.091 293.263 424.292 293.523 424.438C293.784 424.583 294.094 424.656 294.453 424.656C294.802 424.656 295.104 424.583 295.359 424.438C295.62 424.292 295.833 424.091 296 423.836C296.167 423.581 296.289 423.284 296.367 422.945C296.451 422.607 296.492 422.247 296.492 421.867V421.688C296.492 421.312 296.451 420.958 296.367 420.625C296.289 420.286 296.164 419.987 295.992 419.727C295.826 419.466 295.612 419.263 295.352 419.117C295.096 418.966 294.792 418.891 294.438 418.891C294.083 418.891 293.776 418.966 293.516 419.117C293.26 419.263 293.049 419.466 292.883 419.727C292.716 419.987 292.594 420.286 292.516 420.625C292.438 420.958 292.398 421.312 292.398 421.688ZM299.594 421.867V421.688C299.594 421.078 299.682 420.513 299.859 419.992C300.036 419.466 300.292 419.01 300.625 418.625C300.964 418.234 301.375 417.932 301.859 417.719C302.349 417.5 302.901 417.391 303.516 417.391C304.135 417.391 304.688 417.5 305.172 417.719C305.661 417.932 306.076 418.234 306.414 418.625C306.753 419.01 307.01 419.466 307.188 419.992C307.365 420.513 307.453 421.078 307.453 421.688V421.867C307.453 422.477 307.365 423.042 307.188 423.562C307.01 424.083 306.753 424.539 306.414 424.93C306.076 425.315 305.664 425.617 305.18 425.836C304.695 426.049 304.146 426.156 303.531 426.156C302.911 426.156 302.357 426.049 301.867 425.836C301.383 425.617 300.971 425.315 300.633 424.93C300.294 424.539 300.036 424.083 299.859 423.562C299.682 423.042 299.594 422.477 299.594 421.867ZM301.477 421.688V421.867C301.477 422.247 301.516 422.607 301.594 422.945C301.672 423.284 301.794 423.581 301.961 423.836C302.128 424.091 302.341 424.292 302.602 424.438C302.862 424.583 303.172 424.656 303.531 424.656C303.88 424.656 304.182 424.583 304.438 424.438C304.698 424.292 304.911 424.091 305.078 423.836C305.245 423.581 305.367 423.284 305.445 422.945C305.529 422.607 305.57 422.247 305.57 421.867V421.688C305.57 421.312 305.529 420.958 305.445 420.625C305.367 420.286 305.242 419.987 305.07 419.727C304.904 419.466 304.69 419.263 304.43 419.117C304.174 418.966 303.87 418.891 303.516 418.891C303.161 418.891 302.854 418.966 302.594 419.117C302.339 419.263 302.128 419.466 301.961 419.727C301.794 419.987 301.672 420.286 301.594 420.625C301.516 420.958 301.477 421.312 301.477 421.688ZM314.445 417.547H316.156V425.766C316.156 426.526 315.995 427.172 315.672 427.703C315.349 428.234 314.898 428.638 314.32 428.914C313.742 429.195 313.073 429.336 312.312 429.336C311.99 429.336 311.63 429.289 311.234 429.195C310.844 429.102 310.464 428.951 310.094 428.742C309.729 428.539 309.424 428.271 309.18 427.938L310.062 426.828C310.365 427.188 310.698 427.451 311.062 427.617C311.427 427.784 311.81 427.867 312.211 427.867C312.643 427.867 313.01 427.786 313.312 427.625C313.62 427.469 313.857 427.237 314.023 426.93C314.19 426.622 314.273 426.247 314.273 425.805V419.461L314.445 417.547ZM308.703 421.867V421.703C308.703 421.062 308.781 420.479 308.938 419.953C309.094 419.422 309.318 418.966 309.609 418.586C309.901 418.201 310.255 417.906 310.672 417.703C311.089 417.495 311.56 417.391 312.086 417.391C312.633 417.391 313.099 417.49 313.484 417.688C313.875 417.885 314.201 418.169 314.461 418.539C314.721 418.904 314.924 419.341 315.07 419.852C315.221 420.357 315.333 420.919 315.406 421.539V422.062C315.339 422.667 315.224 423.219 315.062 423.719C314.901 424.219 314.688 424.651 314.422 425.016C314.156 425.38 313.828 425.661 313.438 425.859C313.052 426.057 312.596 426.156 312.07 426.156C311.555 426.156 311.089 426.049 310.672 425.836C310.26 425.622 309.906 425.323 309.609 424.938C309.318 424.552 309.094 424.099 308.938 423.578C308.781 423.052 308.703 422.482 308.703 421.867ZM310.586 421.703V421.867C310.586 422.253 310.622 422.612 310.695 422.945C310.773 423.279 310.891 423.573 311.047 423.828C311.208 424.078 311.411 424.276 311.656 424.422C311.906 424.562 312.201 424.633 312.539 424.633C312.982 424.633 313.344 424.539 313.625 424.352C313.911 424.164 314.13 423.911 314.281 423.594C314.438 423.271 314.547 422.911 314.609 422.516V421.102C314.578 420.794 314.513 420.508 314.414 420.242C314.32 419.977 314.193 419.745 314.031 419.547C313.87 419.344 313.667 419.188 313.422 419.078C313.177 418.964 312.888 418.906 312.555 418.906C312.216 418.906 311.922 418.979 311.672 419.125C311.422 419.271 311.216 419.471 311.055 419.727C310.898 419.982 310.781 420.279 310.703 420.617C310.625 420.956 310.586 421.318 310.586 421.703ZM320.125 414V426H318.234V414H320.125ZM325.914 426.156C325.289 426.156 324.724 426.055 324.219 425.852C323.719 425.643 323.292 425.354 322.938 424.984C322.589 424.615 322.32 424.18 322.133 423.68C321.945 423.18 321.852 422.641 321.852 422.062V421.75C321.852 421.089 321.948 420.49 322.141 419.953C322.333 419.417 322.602 418.958 322.945 418.578C323.289 418.193 323.695 417.898 324.164 417.695C324.633 417.492 325.141 417.391 325.688 417.391C326.292 417.391 326.82 417.492 327.273 417.695C327.727 417.898 328.102 418.185 328.398 418.555C328.701 418.919 328.924 419.354 329.07 419.859C329.221 420.365 329.297 420.922 329.297 421.531V422.336H322.766V420.984H327.438V420.836C327.427 420.497 327.359 420.18 327.234 419.883C327.115 419.586 326.93 419.346 326.68 419.164C326.43 418.982 326.096 418.891 325.68 418.891C325.367 418.891 325.089 418.958 324.844 419.094C324.604 419.224 324.404 419.414 324.242 419.664C324.081 419.914 323.956 420.216 323.867 420.57C323.784 420.919 323.742 421.312 323.742 421.75V422.062C323.742 422.432 323.792 422.776 323.891 423.094C323.995 423.406 324.146 423.68 324.344 423.914C324.542 424.148 324.781 424.333 325.062 424.469C325.344 424.599 325.664 424.664 326.023 424.664C326.477 424.664 326.88 424.573 327.234 424.391C327.589 424.208 327.896 423.951 328.156 423.617L329.148 424.578C328.966 424.844 328.729 425.099 328.438 425.344C328.146 425.583 327.789 425.779 327.367 425.93C326.951 426.081 326.466 426.156 325.914 426.156ZM339.367 416.141L335.969 426H333.914L338.195 414.625H339.508L339.367 416.141ZM342.211 426L338.805 416.141L338.656 414.625H339.977L344.273 426H342.211ZM342.047 421.781V423.336H335.859V421.781H342.047ZM350.516 424.25V414H352.406V426H350.695L350.516 424.25ZM345.016 421.867V421.703C345.016 421.062 345.091 420.479 345.242 419.953C345.393 419.422 345.612 418.966 345.898 418.586C346.185 418.201 346.534 417.906 346.945 417.703C347.357 417.495 347.82 417.391 348.336 417.391C348.846 417.391 349.294 417.49 349.68 417.688C350.065 417.885 350.393 418.169 350.664 418.539C350.935 418.904 351.151 419.341 351.312 419.852C351.474 420.357 351.589 420.919 351.656 421.539V422.062C351.589 422.667 351.474 423.219 351.312 423.719C351.151 424.219 350.935 424.651 350.664 425.016C350.393 425.38 350.062 425.661 349.672 425.859C349.286 426.057 348.836 426.156 348.32 426.156C347.81 426.156 347.349 426.049 346.938 425.836C346.531 425.622 346.185 425.323 345.898 424.938C345.612 424.552 345.393 424.099 345.242 423.578C345.091 423.052 345.016 422.482 345.016 421.867ZM346.898 421.703V421.867C346.898 422.253 346.932 422.612 347 422.945C347.073 423.279 347.185 423.573 347.336 423.828C347.487 424.078 347.682 424.276 347.922 424.422C348.167 424.562 348.458 424.633 348.797 424.633C349.224 424.633 349.576 424.539 349.852 424.352C350.128 424.164 350.344 423.911 350.5 423.594C350.661 423.271 350.771 422.911 350.828 422.516V421.102C350.797 420.794 350.732 420.508 350.633 420.242C350.539 419.977 350.411 419.745 350.25 419.547C350.089 419.344 349.888 419.188 349.648 419.078C349.414 418.964 349.135 418.906 348.812 418.906C348.469 418.906 348.177 418.979 347.938 419.125C347.698 419.271 347.5 419.471 347.344 419.727C347.193 419.982 347.081 420.279 347.008 420.617C346.935 420.956 346.898 421.318 346.898 421.703ZM359.117 423.711C359.117 423.523 359.07 423.354 358.977 423.203C358.883 423.047 358.703 422.906 358.438 422.781C358.177 422.656 357.792 422.542 357.281 422.438C356.833 422.339 356.422 422.221 356.047 422.086C355.677 421.945 355.359 421.776 355.094 421.578C354.828 421.38 354.622 421.146 354.477 420.875C354.331 420.604 354.258 420.292 354.258 419.938C354.258 419.594 354.333 419.268 354.484 418.961C354.635 418.654 354.852 418.383 355.133 418.148C355.414 417.914 355.755 417.729 356.156 417.594C356.562 417.458 357.016 417.391 357.516 417.391C358.224 417.391 358.831 417.51 359.336 417.75C359.846 417.984 360.237 418.305 360.508 418.711C360.779 419.112 360.914 419.565 360.914 420.07H359.031C359.031 419.846 358.974 419.638 358.859 419.445C358.75 419.247 358.583 419.089 358.359 418.969C358.135 418.844 357.854 418.781 357.516 418.781C357.193 418.781 356.924 418.833 356.711 418.938C356.503 419.036 356.346 419.167 356.242 419.328C356.143 419.49 356.094 419.667 356.094 419.859C356.094 420 356.12 420.128 356.172 420.242C356.229 420.352 356.323 420.453 356.453 420.547C356.583 420.635 356.76 420.719 356.984 420.797C357.214 420.875 357.5 420.951 357.844 421.023C358.49 421.159 359.044 421.333 359.508 421.547C359.977 421.755 360.336 422.026 360.586 422.359C360.836 422.688 360.961 423.104 360.961 423.609C360.961 423.984 360.88 424.328 360.719 424.641C360.562 424.948 360.333 425.216 360.031 425.445C359.729 425.669 359.367 425.844 358.945 425.969C358.529 426.094 358.06 426.156 357.539 426.156C356.773 426.156 356.125 426.021 355.594 425.75C355.062 425.474 354.659 425.122 354.383 424.695C354.112 424.263 353.977 423.815 353.977 423.352H355.797C355.818 423.701 355.914 423.979 356.086 424.188C356.263 424.391 356.482 424.539 356.742 424.633C357.008 424.721 357.281 424.766 357.562 424.766C357.901 424.766 358.185 424.721 358.414 424.633C358.643 424.539 358.818 424.414 358.938 424.258C359.057 424.096 359.117 423.914 359.117 423.711Z" fill="white"/>
<rect x="84" y="524" width="140" height="35" rx="17.5" fill="white" fill-opacity="0.1"/>
<rect x="84" y="524" width="140" height="35" rx="17.5" stroke="url(#paint10_linear_373_2773)"/>
<path d="M117.953 535.625H119.703L122.992 544.398L126.273 535.625H128.023L123.68 547H122.289L117.953 535.625ZM117.156 535.625H118.82L119.109 543.219V547H117.156V535.625ZM127.156 535.625H128.828V547H126.867V543.219L127.156 535.625ZM135.734 545.305V541.273C135.734 540.971 135.68 540.711 135.57 540.492C135.461 540.273 135.294 540.104 135.07 539.984C134.852 539.865 134.576 539.805 134.242 539.805C133.935 539.805 133.669 539.857 133.445 539.961C133.221 540.065 133.047 540.206 132.922 540.383C132.797 540.56 132.734 540.76 132.734 540.984H130.859C130.859 540.651 130.94 540.328 131.102 540.016C131.263 539.703 131.497 539.424 131.805 539.18C132.112 538.935 132.479 538.742 132.906 538.602C133.333 538.461 133.812 538.391 134.344 538.391C134.979 538.391 135.542 538.497 136.031 538.711C136.526 538.924 136.914 539.247 137.195 539.68C137.482 540.107 137.625 540.643 137.625 541.289V545.047C137.625 545.432 137.651 545.779 137.703 546.086C137.76 546.388 137.841 546.651 137.945 546.875V547H136.016C135.927 546.797 135.857 546.539 135.805 546.227C135.758 545.909 135.734 545.602 135.734 545.305ZM136.008 541.859L136.023 543.023H134.672C134.323 543.023 134.016 543.057 133.75 543.125C133.484 543.188 133.263 543.281 133.086 543.406C132.909 543.531 132.776 543.682 132.688 543.859C132.599 544.036 132.555 544.237 132.555 544.461C132.555 544.685 132.607 544.891 132.711 545.078C132.815 545.26 132.966 545.404 133.164 545.508C133.367 545.612 133.612 545.664 133.898 545.664C134.284 545.664 134.62 545.586 134.906 545.43C135.198 545.268 135.427 545.073 135.594 544.844C135.76 544.609 135.849 544.388 135.859 544.18L136.469 545.016C136.406 545.229 136.299 545.458 136.148 545.703C135.997 545.948 135.799 546.182 135.555 546.406C135.315 546.625 135.026 546.805 134.688 546.945C134.354 547.086 133.969 547.156 133.531 547.156C132.979 547.156 132.487 547.047 132.055 546.828C131.622 546.604 131.284 546.305 131.039 545.93C130.794 545.549 130.672 545.12 130.672 544.641C130.672 544.193 130.755 543.797 130.922 543.453C131.094 543.104 131.344 542.812 131.672 542.578C132.005 542.344 132.411 542.167 132.891 542.047C133.37 541.922 133.917 541.859 134.531 541.859H136.008ZM141.609 538.547V547H139.719V538.547H141.609ZM139.594 536.328C139.594 536.042 139.688 535.805 139.875 535.617C140.068 535.424 140.333 535.328 140.672 535.328C141.005 535.328 141.268 535.424 141.461 535.617C141.654 535.805 141.75 536.042 141.75 536.328C141.75 536.609 141.654 536.844 141.461 537.031C141.268 537.219 141.005 537.312 140.672 537.312C140.333 537.312 140.068 537.219 139.875 537.031C139.688 536.844 139.594 536.609 139.594 536.328ZM145.688 535V547H143.797V535H145.688ZM151.203 545.656C151.51 545.656 151.786 545.596 152.031 545.477C152.281 545.352 152.482 545.18 152.633 544.961C152.789 544.742 152.875 544.49 152.891 544.203H154.664C154.654 544.75 154.492 545.247 154.18 545.695C153.867 546.143 153.453 546.5 152.938 546.766C152.422 547.026 151.852 547.156 151.227 547.156C150.581 547.156 150.018 547.047 149.539 546.828C149.06 546.604 148.661 546.297 148.344 545.906C148.026 545.516 147.786 545.065 147.625 544.555C147.469 544.044 147.391 543.497 147.391 542.914V542.641C147.391 542.057 147.469 541.51 147.625 541C147.786 540.484 148.026 540.031 148.344 539.641C148.661 539.25 149.06 538.945 149.539 538.727C150.018 538.503 150.578 538.391 151.219 538.391C151.896 538.391 152.49 538.526 153 538.797C153.51 539.062 153.911 539.435 154.203 539.914C154.5 540.388 154.654 540.94 154.664 541.57H152.891C152.875 541.258 152.797 540.977 152.656 540.727C152.521 540.471 152.328 540.268 152.078 540.117C151.833 539.966 151.539 539.891 151.195 539.891C150.815 539.891 150.5 539.969 150.25 540.125C150 540.276 149.805 540.484 149.664 540.75C149.523 541.01 149.422 541.305 149.359 541.633C149.302 541.956 149.273 542.292 149.273 542.641V542.914C149.273 543.263 149.302 543.602 149.359 543.93C149.417 544.258 149.516 544.552 149.656 544.812C149.802 545.068 150 545.273 150.25 545.43C150.5 545.581 150.818 545.656 151.203 545.656ZM157.969 535V547H156.094V535H157.969ZM157.641 542.461L157.031 542.453C157.036 541.87 157.117 541.331 157.273 540.836C157.435 540.341 157.659 539.911 157.945 539.547C158.237 539.177 158.586 538.893 158.992 538.695C159.398 538.492 159.849 538.391 160.344 538.391C160.76 538.391 161.135 538.448 161.469 538.562C161.807 538.677 162.099 538.862 162.344 539.117C162.589 539.367 162.773 539.695 162.898 540.102C163.029 540.503 163.094 540.992 163.094 541.57V547H161.203V541.555C161.203 541.148 161.143 540.826 161.023 540.586C160.909 540.346 160.74 540.174 160.516 540.07C160.292 539.961 160.018 539.906 159.695 539.906C159.357 539.906 159.057 539.974 158.797 540.109C158.542 540.245 158.328 540.43 158.156 540.664C157.984 540.898 157.854 541.169 157.766 541.477C157.682 541.784 157.641 542.112 157.641 542.461ZM167.016 538.547V547H165.125V538.547H167.016ZM165 536.328C165 536.042 165.094 535.805 165.281 535.617C165.474 535.424 165.74 535.328 166.078 535.328C166.411 535.328 166.674 535.424 166.867 535.617C167.06 535.805 167.156 536.042 167.156 536.328C167.156 536.609 167.06 536.844 166.867 537.031C166.674 537.219 166.411 537.312 166.078 537.312C165.74 537.312 165.474 537.219 165.281 537.031C165.094 536.844 165 536.609 165 536.328ZM170.961 540.266V547H169.078V538.547H170.852L170.961 540.266ZM170.656 542.461L170.016 542.453C170.016 541.87 170.089 541.331 170.234 540.836C170.38 540.341 170.594 539.911 170.875 539.547C171.156 539.177 171.505 538.893 171.922 538.695C172.344 538.492 172.831 538.391 173.383 538.391C173.768 538.391 174.12 538.448 174.438 538.562C174.76 538.672 175.039 538.846 175.273 539.086C175.513 539.326 175.695 539.633 175.82 540.008C175.951 540.383 176.016 540.836 176.016 541.367V547H174.133V541.531C174.133 541.12 174.07 540.797 173.945 540.562C173.826 540.328 173.651 540.161 173.422 540.062C173.198 539.958 172.93 539.906 172.617 539.906C172.263 539.906 171.961 539.974 171.711 540.109C171.466 540.245 171.266 540.43 171.109 540.664C170.953 540.898 170.839 541.169 170.766 541.477C170.693 541.784 170.656 542.112 170.656 542.461ZM175.898 541.961L175.016 542.156C175.016 541.646 175.086 541.164 175.227 540.711C175.372 540.253 175.583 539.852 175.859 539.508C176.141 539.159 176.487 538.885 176.898 538.688C177.31 538.49 177.781 538.391 178.312 538.391C178.745 538.391 179.13 538.451 179.469 538.57C179.812 538.685 180.104 538.867 180.344 539.117C180.583 539.367 180.766 539.693 180.891 540.094C181.016 540.49 181.078 540.969 181.078 541.531V547H179.188V541.523C179.188 541.096 179.125 540.766 179 540.531C178.88 540.297 178.708 540.135 178.484 540.047C178.26 539.953 177.992 539.906 177.68 539.906C177.388 539.906 177.13 539.961 176.906 540.07C176.688 540.174 176.503 540.323 176.352 540.516C176.201 540.703 176.086 540.919 176.008 541.164C175.935 541.409 175.898 541.674 175.898 541.961ZM184.906 540.172V550.25H183.023V538.547H184.758L184.906 540.172ZM190.414 542.695V542.859C190.414 543.474 190.341 544.044 190.195 544.57C190.055 545.091 189.844 545.547 189.562 545.938C189.286 546.323 188.945 546.622 188.539 546.836C188.133 547.049 187.664 547.156 187.133 547.156C186.607 547.156 186.146 547.06 185.75 546.867C185.359 546.669 185.029 546.391 184.758 546.031C184.487 545.672 184.268 545.25 184.102 544.766C183.94 544.276 183.826 543.74 183.758 543.156V542.523C183.826 541.904 183.94 541.341 184.102 540.836C184.268 540.331 184.487 539.896 184.758 539.531C185.029 539.167 185.359 538.885 185.75 538.688C186.141 538.49 186.596 538.391 187.117 538.391C187.648 538.391 188.12 538.495 188.531 538.703C188.943 538.906 189.289 539.198 189.57 539.578C189.852 539.953 190.062 540.406 190.203 540.938C190.344 541.464 190.414 542.049 190.414 542.695ZM188.531 542.859V542.695C188.531 542.305 188.495 541.943 188.422 541.609C188.349 541.271 188.234 540.974 188.078 540.719C187.922 540.464 187.721 540.266 187.477 540.125C187.237 539.979 186.948 539.906 186.609 539.906C186.276 539.906 185.99 539.964 185.75 540.078C185.51 540.188 185.31 540.341 185.148 540.539C184.987 540.737 184.862 540.969 184.773 541.234C184.685 541.495 184.622 541.779 184.586 542.086V543.602C184.648 543.977 184.755 544.32 184.906 544.633C185.057 544.945 185.271 545.195 185.547 545.383C185.828 545.565 186.188 545.656 186.625 545.656C186.964 545.656 187.253 545.583 187.492 545.438C187.732 545.292 187.927 545.091 188.078 544.836C188.234 544.576 188.349 544.276 188.422 543.938C188.495 543.599 188.531 543.24 188.531 542.859Z" fill="white"/>
<rect x="1084" y="510" width="130" height="35" rx="17.5" fill="white" fill-opacity="0.1"/>
<rect x="1084" y="510" width="130" height="35" rx="17.5" stroke="url(#paint11_linear_373_2773)"/>
<path d="M1121.59 523.141L1118.19 533H1116.13L1120.41 521.625H1121.73L1121.59 523.141ZM1124.43 533L1121.02 523.141L1120.88 521.625H1122.2L1126.49 533H1124.43ZM1124.27 528.781V530.336H1118.08V528.781H1124.27ZM1129.3 526.352V533H1127.42V524.547H1129.2L1129.3 526.352ZM1128.97 528.461L1128.36 528.453C1128.36 527.854 1128.45 527.305 1128.61 526.805C1128.78 526.305 1129.01 525.875 1129.3 525.516C1129.59 525.156 1129.95 524.88 1130.36 524.688C1130.77 524.49 1131.23 524.391 1131.73 524.391C1132.14 524.391 1132.51 524.448 1132.84 524.562C1133.17 524.672 1133.45 524.852 1133.69 525.102C1133.93 525.352 1134.11 525.677 1134.23 526.078C1134.36 526.474 1134.42 526.961 1134.42 527.539V533H1132.53V527.531C1132.53 527.125 1132.47 526.805 1132.35 526.57C1132.24 526.331 1132.07 526.161 1131.84 526.062C1131.62 525.958 1131.35 525.906 1131.02 525.906C1130.7 525.906 1130.41 525.974 1130.16 526.109C1129.9 526.245 1129.68 526.43 1129.51 526.664C1129.34 526.898 1129.2 527.169 1129.11 527.477C1129.02 527.784 1128.97 528.112 1128.97 528.461ZM1141.11 531.305V527.273C1141.11 526.971 1141.05 526.711 1140.95 526.492C1140.84 526.273 1140.67 526.104 1140.45 525.984C1140.23 525.865 1139.95 525.805 1139.62 525.805C1139.31 525.805 1139.04 525.857 1138.82 525.961C1138.6 526.065 1138.42 526.206 1138.3 526.383C1138.17 526.56 1138.11 526.76 1138.11 526.984H1136.23C1136.23 526.651 1136.32 526.328 1136.48 526.016C1136.64 525.703 1136.87 525.424 1137.18 525.18C1137.49 524.935 1137.85 524.742 1138.28 524.602C1138.71 524.461 1139.19 524.391 1139.72 524.391C1140.35 524.391 1140.92 524.497 1141.41 524.711C1141.9 524.924 1142.29 525.247 1142.57 525.68C1142.86 526.107 1143 526.643 1143 527.289V531.047C1143 531.432 1143.03 531.779 1143.08 532.086C1143.14 532.388 1143.22 532.651 1143.32 532.875V533H1141.39C1141.3 532.797 1141.23 532.539 1141.18 532.227C1141.13 531.909 1141.11 531.602 1141.11 531.305ZM1141.38 527.859L1141.4 529.023H1140.05C1139.7 529.023 1139.39 529.057 1139.12 529.125C1138.86 529.188 1138.64 529.281 1138.46 529.406C1138.28 529.531 1138.15 529.682 1138.06 529.859C1137.97 530.036 1137.93 530.237 1137.93 530.461C1137.93 530.685 1137.98 530.891 1138.09 531.078C1138.19 531.26 1138.34 531.404 1138.54 531.508C1138.74 531.612 1138.99 531.664 1139.27 531.664C1139.66 531.664 1139.99 531.586 1140.28 531.43C1140.57 531.268 1140.8 531.073 1140.97 530.844C1141.14 530.609 1141.22 530.388 1141.23 530.18L1141.84 531.016C1141.78 531.229 1141.67 531.458 1141.52 531.703C1141.37 531.948 1141.17 532.182 1140.93 532.406C1140.69 532.625 1140.4 532.805 1140.06 532.945C1139.73 533.086 1139.34 533.156 1138.91 533.156C1138.35 533.156 1137.86 533.047 1137.43 532.828C1137 532.604 1136.66 532.305 1136.41 531.93C1136.17 531.549 1136.05 531.12 1136.05 530.641C1136.05 530.193 1136.13 529.797 1136.3 529.453C1136.47 529.104 1136.72 528.812 1137.05 528.578C1137.38 528.344 1137.79 528.167 1138.27 528.047C1138.74 527.922 1139.29 527.859 1139.91 527.859H1141.38ZM1146.98 521V533H1145.09V521H1146.98ZM1151.5 532.078L1153.8 524.547H1155.81L1152.42 534.289C1152.34 534.497 1152.24 534.724 1152.12 534.969C1151.99 535.214 1151.83 535.445 1151.62 535.664C1151.43 535.888 1151.18 536.068 1150.88 536.203C1150.59 536.344 1150.23 536.414 1149.8 536.414C1149.64 536.414 1149.48 536.398 1149.32 536.367C1149.17 536.341 1149.03 536.312 1148.89 536.281L1148.88 534.844C1148.93 534.849 1149 534.854 1149.07 534.859C1149.15 534.865 1149.21 534.867 1149.26 534.867C1149.57 534.867 1149.83 534.828 1150.04 534.75C1150.25 534.677 1150.42 534.557 1150.55 534.391C1150.68 534.224 1150.8 534 1150.89 533.719L1151.5 532.078ZM1150.2 524.547L1152.21 530.875L1152.55 532.859L1151.24 533.195L1148.17 524.547H1150.2ZM1160.77 524.547V525.922H1156V524.547H1160.77ZM1157.38 522.477H1159.26V530.664C1159.26 530.924 1159.29 531.125 1159.37 531.266C1159.45 531.401 1159.55 531.492 1159.69 531.539C1159.82 531.586 1159.98 531.609 1160.16 531.609C1160.29 531.609 1160.42 531.602 1160.54 531.586C1160.66 531.57 1160.76 531.555 1160.83 531.539L1160.84 532.977C1160.68 533.023 1160.5 533.065 1160.29 533.102C1160.09 533.138 1159.85 533.156 1159.59 533.156C1159.15 533.156 1158.77 533.081 1158.44 532.93C1158.1 532.773 1157.84 532.521 1157.66 532.172C1157.47 531.823 1157.38 531.359 1157.38 530.781V522.477ZM1164.23 524.547V533H1162.34V524.547H1164.23ZM1162.22 522.328C1162.22 522.042 1162.31 521.805 1162.5 521.617C1162.69 521.424 1162.96 521.328 1163.3 521.328C1163.63 521.328 1163.89 521.424 1164.09 521.617C1164.28 521.805 1164.38 522.042 1164.38 522.328C1164.38 522.609 1164.28 522.844 1164.09 523.031C1163.89 523.219 1163.63 523.312 1163.3 523.312C1162.96 523.312 1162.69 523.219 1162.5 523.031C1162.31 522.844 1162.22 522.609 1162.22 522.328ZM1169.75 531.656C1170.06 531.656 1170.33 531.596 1170.58 531.477C1170.83 531.352 1171.03 531.18 1171.18 530.961C1171.34 530.742 1171.42 530.49 1171.44 530.203H1173.21C1173.2 530.75 1173.04 531.247 1172.73 531.695C1172.41 532.143 1172 532.5 1171.48 532.766C1170.97 533.026 1170.4 533.156 1169.77 533.156C1169.13 533.156 1168.57 533.047 1168.09 532.828C1167.61 532.604 1167.21 532.297 1166.89 531.906C1166.57 531.516 1166.33 531.065 1166.17 530.555C1166.02 530.044 1165.94 529.497 1165.94 528.914V528.641C1165.94 528.057 1166.02 527.51 1166.17 527C1166.33 526.484 1166.57 526.031 1166.89 525.641C1167.21 525.25 1167.61 524.945 1168.09 524.727C1168.57 524.503 1169.12 524.391 1169.77 524.391C1170.44 524.391 1171.04 524.526 1171.55 524.797C1172.06 525.062 1172.46 525.435 1172.75 525.914C1173.05 526.388 1173.2 526.94 1173.21 527.57H1171.44C1171.42 527.258 1171.34 526.977 1171.2 526.727C1171.07 526.471 1170.88 526.268 1170.62 526.117C1170.38 525.966 1170.09 525.891 1169.74 525.891C1169.36 525.891 1169.05 525.969 1168.8 526.125C1168.55 526.276 1168.35 526.484 1168.21 526.75C1168.07 527.01 1167.97 527.305 1167.91 527.633C1167.85 527.956 1167.82 528.292 1167.82 528.641V528.914C1167.82 529.263 1167.85 529.602 1167.91 529.93C1167.96 530.258 1168.06 530.552 1168.2 530.812C1168.35 531.068 1168.55 531.273 1168.8 531.43C1169.05 531.581 1169.36 531.656 1169.75 531.656ZM1179.4 530.711C1179.4 530.523 1179.35 530.354 1179.26 530.203C1179.16 530.047 1178.98 529.906 1178.72 529.781C1178.46 529.656 1178.07 529.542 1177.56 529.438C1177.11 529.339 1176.7 529.221 1176.33 529.086C1175.96 528.945 1175.64 528.776 1175.38 528.578C1175.11 528.38 1174.9 528.146 1174.76 527.875C1174.61 527.604 1174.54 527.292 1174.54 526.938C1174.54 526.594 1174.61 526.268 1174.77 525.961C1174.92 525.654 1175.13 525.383 1175.41 525.148C1175.7 524.914 1176.04 524.729 1176.44 524.594C1176.84 524.458 1177.3 524.391 1177.8 524.391C1178.51 524.391 1179.11 524.51 1179.62 524.75C1180.13 524.984 1180.52 525.305 1180.79 525.711C1181.06 526.112 1181.2 526.565 1181.2 527.07H1179.31C1179.31 526.846 1179.26 526.638 1179.14 526.445C1179.03 526.247 1178.86 526.089 1178.64 525.969C1178.42 525.844 1178.14 525.781 1177.8 525.781C1177.47 525.781 1177.21 525.833 1176.99 525.938C1176.78 526.036 1176.63 526.167 1176.52 526.328C1176.42 526.49 1176.38 526.667 1176.38 526.859C1176.38 527 1176.4 527.128 1176.45 527.242C1176.51 527.352 1176.6 527.453 1176.73 527.547C1176.86 527.635 1177.04 527.719 1177.27 527.797C1177.49 527.875 1177.78 527.951 1178.12 528.023C1178.77 528.159 1179.33 528.333 1179.79 528.547C1180.26 528.755 1180.62 529.026 1180.87 529.359C1181.12 529.688 1181.24 530.104 1181.24 530.609C1181.24 530.984 1181.16 531.328 1181 531.641C1180.84 531.948 1180.61 532.216 1180.31 532.445C1180.01 532.669 1179.65 532.844 1179.23 532.969C1178.81 533.094 1178.34 533.156 1177.82 533.156C1177.05 533.156 1176.41 533.021 1175.88 532.75C1175.34 532.474 1174.94 532.122 1174.66 531.695C1174.39 531.263 1174.26 530.815 1174.26 530.352H1176.08C1176.1 530.701 1176.2 530.979 1176.37 531.188C1176.54 531.391 1176.76 531.539 1177.02 531.633C1177.29 531.721 1177.56 531.766 1177.84 531.766C1178.18 531.766 1178.47 531.721 1178.7 531.633C1178.92 531.539 1179.1 531.414 1179.22 531.258C1179.34 531.096 1179.4 530.914 1179.4 530.711Z" fill="white"/>
<rect x="954" y="682" width="129" height="35" rx="17.5" fill="white" fill-opacity="0.1"/>
<rect x="954" y="682" width="129" height="35" rx="17.5" stroke="url(#paint12_linear_373_2773)"/>
<path d="M993.141 702.07C993.141 701.836 993.104 701.628 993.031 701.445C992.964 701.263 992.841 701.096 992.664 700.945C992.487 700.794 992.237 700.648 991.914 700.508C991.596 700.362 991.19 700.214 990.695 700.062C990.154 699.896 989.654 699.711 989.195 699.508C988.742 699.299 988.346 699.06 988.008 698.789C987.669 698.513 987.406 698.198 987.219 697.844C987.031 697.484 986.938 697.07 986.938 696.602C986.938 696.138 987.034 695.716 987.227 695.336C987.424 694.956 987.703 694.628 988.062 694.352C988.427 694.07 988.857 693.854 989.352 693.703C989.846 693.547 990.393 693.469 990.992 693.469C991.836 693.469 992.562 693.625 993.172 693.938C993.786 694.25 994.258 694.669 994.586 695.195C994.919 695.721 995.086 696.302 995.086 696.938H993.141C993.141 696.562 993.06 696.232 992.898 695.945C992.742 695.654 992.503 695.424 992.18 695.258C991.862 695.091 991.458 695.008 990.969 695.008C990.505 695.008 990.12 695.078 989.812 695.219C989.505 695.359 989.276 695.549 989.125 695.789C988.974 696.029 988.898 696.299 988.898 696.602C988.898 696.815 988.948 697.01 989.047 697.188C989.146 697.359 989.297 697.521 989.5 697.672C989.703 697.818 989.958 697.956 990.266 698.086C990.573 698.216 990.935 698.341 991.352 698.461C991.982 698.648 992.531 698.857 993 699.086C993.469 699.31 993.859 699.565 994.172 699.852C994.484 700.138 994.719 700.464 994.875 700.828C995.031 701.188 995.109 701.596 995.109 702.055C995.109 702.534 995.013 702.966 994.82 703.352C994.628 703.732 994.352 704.057 993.992 704.328C993.638 704.594 993.211 704.799 992.711 704.945C992.216 705.086 991.664 705.156 991.055 705.156C990.508 705.156 989.969 705.083 989.438 704.938C988.911 704.792 988.432 704.57 988 704.273C987.568 703.971 987.224 703.596 986.969 703.148C986.714 702.695 986.586 702.167 986.586 701.562H988.547C988.547 701.932 988.609 702.247 988.734 702.508C988.865 702.768 989.044 702.982 989.273 703.148C989.503 703.31 989.768 703.43 990.07 703.508C990.378 703.586 990.706 703.625 991.055 703.625C991.513 703.625 991.896 703.56 992.203 703.43C992.516 703.299 992.75 703.117 992.906 702.883C993.062 702.648 993.141 702.378 993.141 702.07ZM1004.29 703.445V705H998.25V703.445H1004.29ZM998.805 693.625V705H996.844V693.625H998.805ZM1003.5 698.375V699.906H998.25V698.375H1003.5ZM1004.25 693.625V695.188H998.25V693.625H1004.25ZM1006.69 693.625H1008.44L1011.73 702.398L1015.01 693.625H1016.76L1012.41 705H1011.02L1006.69 693.625ZM1005.89 693.625H1007.55L1007.84 701.219V705H1005.89V693.625ZM1015.89 693.625H1017.56V705H1015.6V701.219L1015.89 693.625ZM1021.59 698.156V705H1019.71V696.547H1021.51L1021.59 698.156ZM1024.18 696.492L1024.16 698.242C1024.05 698.221 1023.92 698.206 1023.79 698.195C1023.66 698.185 1023.53 698.18 1023.4 698.18C1023.08 698.18 1022.79 698.227 1022.55 698.32C1022.3 698.409 1022.1 698.539 1021.93 698.711C1021.77 698.878 1021.64 699.081 1021.55 699.32C1021.47 699.56 1021.41 699.828 1021.4 700.125L1020.97 700.156C1020.97 699.625 1021.02 699.133 1021.12 698.68C1021.23 698.227 1021.39 697.828 1021.59 697.484C1021.81 697.141 1022.07 696.872 1022.39 696.68C1022.71 696.487 1023.09 696.391 1023.51 696.391C1023.62 696.391 1023.74 696.401 1023.88 696.422C1024.01 696.443 1024.11 696.466 1024.18 696.492ZM1030.45 703.008V696.547H1032.34V705H1030.55L1030.45 703.008ZM1030.71 701.25L1031.34 701.234C1031.34 701.802 1031.28 702.326 1031.16 702.805C1031.03 703.279 1030.84 703.693 1030.58 704.047C1030.32 704.396 1029.98 704.669 1029.58 704.867C1029.17 705.06 1028.68 705.156 1028.12 705.156C1027.71 705.156 1027.33 705.096 1026.98 704.977C1026.64 704.857 1026.34 704.672 1026.09 704.422C1025.85 704.172 1025.66 703.846 1025.52 703.445C1025.39 703.044 1025.32 702.565 1025.32 702.008V696.547H1027.2V702.023C1027.2 702.331 1027.24 702.589 1027.31 702.797C1027.39 703 1027.48 703.164 1027.61 703.289C1027.73 703.414 1027.88 703.503 1028.05 703.555C1028.21 703.607 1028.39 703.633 1028.58 703.633C1029.11 703.633 1029.54 703.529 1029.84 703.32C1030.16 703.107 1030.38 702.82 1030.51 702.461C1030.64 702.102 1030.71 701.698 1030.71 701.25ZM1039.01 702.711C1039.01 702.523 1038.96 702.354 1038.87 702.203C1038.77 702.047 1038.59 701.906 1038.33 701.781C1038.07 701.656 1037.68 701.542 1037.17 701.438C1036.72 701.339 1036.31 701.221 1035.94 701.086C1035.57 700.945 1035.25 700.776 1034.98 700.578C1034.72 700.38 1034.51 700.146 1034.37 699.875C1034.22 699.604 1034.15 699.292 1034.15 698.938C1034.15 698.594 1034.22 698.268 1034.38 697.961C1034.53 697.654 1034.74 697.383 1035.02 697.148C1035.3 696.914 1035.65 696.729 1036.05 696.594C1036.45 696.458 1036.91 696.391 1037.41 696.391C1038.11 696.391 1038.72 696.51 1039.23 696.75C1039.74 696.984 1040.13 697.305 1040.4 697.711C1040.67 698.112 1040.8 698.565 1040.8 699.07H1038.92C1038.92 698.846 1038.86 698.638 1038.75 698.445C1038.64 698.247 1038.47 698.089 1038.25 697.969C1038.03 697.844 1037.74 697.781 1037.41 697.781C1037.08 697.781 1036.82 697.833 1036.6 697.938C1036.39 698.036 1036.24 698.167 1036.13 698.328C1036.03 698.49 1035.98 698.667 1035.98 698.859C1035.98 699 1036.01 699.128 1036.06 699.242C1036.12 699.352 1036.21 699.453 1036.34 699.547C1036.47 699.635 1036.65 699.719 1036.88 699.797C1037.1 699.875 1037.39 699.951 1037.73 700.023C1038.38 700.159 1038.93 700.333 1039.4 700.547C1039.87 700.755 1040.23 701.026 1040.48 701.359C1040.73 701.688 1040.85 702.104 1040.85 702.609C1040.85 702.984 1040.77 703.328 1040.61 703.641C1040.45 703.948 1040.22 704.216 1039.92 704.445C1039.62 704.669 1039.26 704.844 1038.84 704.969C1038.42 705.094 1037.95 705.156 1037.43 705.156C1036.66 705.156 1036.02 705.021 1035.48 704.75C1034.95 704.474 1034.55 704.122 1034.27 703.695C1034 703.263 1033.87 702.815 1033.87 702.352H1035.69C1035.71 702.701 1035.8 702.979 1035.98 703.188C1036.15 703.391 1036.37 703.539 1036.63 703.633C1036.9 703.721 1037.17 703.766 1037.45 703.766C1037.79 703.766 1038.08 703.721 1038.3 703.633C1038.53 703.539 1038.71 703.414 1038.83 703.258C1038.95 703.096 1039.01 702.914 1039.01 702.711ZM1044.36 693V705H1042.48V693H1044.36ZM1044.03 700.461L1043.42 700.453C1043.43 699.87 1043.51 699.331 1043.66 698.836C1043.83 698.341 1044.05 697.911 1044.34 697.547C1044.63 697.177 1044.98 696.893 1045.38 696.695C1045.79 696.492 1046.24 696.391 1046.73 696.391C1047.15 696.391 1047.53 696.448 1047.86 696.562C1048.2 696.677 1048.49 696.862 1048.73 697.117C1048.98 697.367 1049.16 697.695 1049.29 698.102C1049.42 698.503 1049.48 698.992 1049.48 699.57V705H1047.59V699.555C1047.59 699.148 1047.53 698.826 1047.41 698.586C1047.3 698.346 1047.13 698.174 1046.91 698.07C1046.68 697.961 1046.41 697.906 1046.09 697.906C1045.75 697.906 1045.45 697.974 1045.19 698.109C1044.93 698.245 1044.72 698.43 1044.55 698.664C1044.38 698.898 1044.24 699.169 1044.16 699.477C1044.07 699.784 1044.03 700.112 1044.03 700.461Z" fill="white"/>
<rect x="982" y="854" width="94" height="35" rx="17.5" fill="white" fill-opacity="0.1"/>
<rect x="982" y="854" width="94" height="35" rx="17.5" stroke="url(#paint13_linear_373_2773)"/>
<path d="M1021.14 874.07C1021.14 873.836 1021.1 873.628 1021.03 873.445C1020.96 873.263 1020.84 873.096 1020.66 872.945C1020.49 872.794 1020.24 872.648 1019.91 872.508C1019.6 872.362 1019.19 872.214 1018.7 872.062C1018.15 871.896 1017.65 871.711 1017.2 871.508C1016.74 871.299 1016.35 871.06 1016.01 870.789C1015.67 870.513 1015.41 870.198 1015.22 869.844C1015.03 869.484 1014.94 869.07 1014.94 868.602C1014.94 868.138 1015.03 867.716 1015.23 867.336C1015.42 866.956 1015.7 866.628 1016.06 866.352C1016.43 866.07 1016.86 865.854 1017.35 865.703C1017.85 865.547 1018.39 865.469 1018.99 865.469C1019.84 865.469 1020.56 865.625 1021.17 865.938C1021.79 866.25 1022.26 866.669 1022.59 867.195C1022.92 867.721 1023.09 868.302 1023.09 868.938H1021.14C1021.14 868.562 1021.06 868.232 1020.9 867.945C1020.74 867.654 1020.5 867.424 1020.18 867.258C1019.86 867.091 1019.46 867.008 1018.97 867.008C1018.51 867.008 1018.12 867.078 1017.81 867.219C1017.51 867.359 1017.28 867.549 1017.12 867.789C1016.97 868.029 1016.9 868.299 1016.9 868.602C1016.9 868.815 1016.95 869.01 1017.05 869.188C1017.15 869.359 1017.3 869.521 1017.5 869.672C1017.7 869.818 1017.96 869.956 1018.27 870.086C1018.57 870.216 1018.93 870.341 1019.35 870.461C1019.98 870.648 1020.53 870.857 1021 871.086C1021.47 871.31 1021.86 871.565 1022.17 871.852C1022.48 872.138 1022.72 872.464 1022.88 872.828C1023.03 873.188 1023.11 873.596 1023.11 874.055C1023.11 874.534 1023.01 874.966 1022.82 875.352C1022.63 875.732 1022.35 876.057 1021.99 876.328C1021.64 876.594 1021.21 876.799 1020.71 876.945C1020.22 877.086 1019.66 877.156 1019.05 877.156C1018.51 877.156 1017.97 877.083 1017.44 876.938C1016.91 876.792 1016.43 876.57 1016 876.273C1015.57 875.971 1015.22 875.596 1014.97 875.148C1014.71 874.695 1014.59 874.167 1014.59 873.562H1016.55C1016.55 873.932 1016.61 874.247 1016.73 874.508C1016.86 874.768 1017.04 874.982 1017.27 875.148C1017.5 875.31 1017.77 875.43 1018.07 875.508C1018.38 875.586 1018.71 875.625 1019.05 875.625C1019.51 875.625 1019.9 875.56 1020.2 875.43C1020.52 875.299 1020.75 875.117 1020.91 874.883C1021.06 874.648 1021.14 874.378 1021.14 874.07ZM1032.29 875.445V877H1026.25V875.445H1032.29ZM1026.8 865.625V877H1024.84V865.625H1026.8ZM1031.5 870.375V871.906H1026.25V870.375H1031.5ZM1032.25 865.625V867.188H1026.25V865.625H1032.25ZM1042.96 871V871.625C1042.96 872.484 1042.85 873.255 1042.62 873.938C1042.4 874.62 1042.08 875.201 1041.66 875.68C1041.25 876.159 1040.76 876.526 1040.18 876.781C1039.6 877.031 1038.96 877.156 1038.26 877.156C1037.56 877.156 1036.92 877.031 1036.34 876.781C1035.77 876.526 1035.27 876.159 1034.85 875.68C1034.43 875.201 1034.1 874.62 1033.87 873.938C1033.64 873.255 1033.52 872.484 1033.52 871.625V871C1033.52 870.141 1033.64 869.372 1033.87 868.695C1034.1 868.013 1034.42 867.432 1034.84 866.953C1035.26 866.469 1035.76 866.102 1036.33 865.852C1036.91 865.596 1037.54 865.469 1038.24 865.469C1038.95 865.469 1039.59 865.596 1040.16 865.852C1040.74 866.102 1041.24 866.469 1041.66 866.953C1042.07 867.432 1042.39 868.013 1042.62 868.695C1042.85 869.372 1042.96 870.141 1042.96 871ZM1041 871.625V870.984C1041 870.349 1040.94 869.789 1040.81 869.305C1040.69 868.815 1040.51 868.406 1040.27 868.078C1040.04 867.745 1039.75 867.495 1039.41 867.328C1039.06 867.156 1038.67 867.07 1038.24 867.07C1037.81 867.07 1037.42 867.156 1037.09 867.328C1036.75 867.495 1036.46 867.745 1036.22 868.078C1035.98 868.406 1035.8 868.815 1035.68 869.305C1035.55 869.789 1035.49 870.349 1035.49 870.984V871.625C1035.49 872.26 1035.55 872.823 1035.68 873.312C1035.8 873.802 1035.99 874.216 1036.23 874.555C1036.47 874.888 1036.76 875.141 1037.1 875.312C1037.44 875.479 1037.83 875.562 1038.26 875.562C1038.7 875.562 1039.08 875.479 1039.42 875.312C1039.76 875.141 1040.05 874.888 1040.28 874.555C1040.52 874.216 1040.69 873.802 1040.81 873.312C1040.94 872.823 1041 872.26 1041 871.625Z" fill="white"/>
<rect x="960" y="333" width="133" height="35" rx="17.5" fill="white" fill-opacity="0.1"/>
<rect x="960" y="333" width="133" height="35" rx="17.5" stroke="url(#paint14_linear_373_2773)"/>
<path d="M993.953 344.625H995.703L998.992 353.398L1002.27 344.625H1004.02L999.68 356H998.289L993.953 344.625ZM993.156 344.625H994.82L995.109 352.219V356H993.156V344.625ZM1003.16 344.625H1004.83V356H1002.87V352.219L1003.16 344.625ZM1010.7 356.156C1010.07 356.156 1009.51 356.055 1009 355.852C1008.5 355.643 1008.07 355.354 1007.72 354.984C1007.37 354.615 1007.1 354.18 1006.91 353.68C1006.73 353.18 1006.63 352.641 1006.63 352.062V351.75C1006.63 351.089 1006.73 350.49 1006.92 349.953C1007.11 349.417 1007.38 348.958 1007.73 348.578C1008.07 348.193 1008.48 347.898 1008.95 347.695C1009.41 347.492 1009.92 347.391 1010.47 347.391C1011.07 347.391 1011.6 347.492 1012.05 347.695C1012.51 347.898 1012.88 348.185 1013.18 348.555C1013.48 348.919 1013.71 349.354 1013.85 349.859C1014 350.365 1014.08 350.922 1014.08 351.531V352.336H1007.55V350.984H1012.22V350.836C1012.21 350.497 1012.14 350.18 1012.02 349.883C1011.9 349.586 1011.71 349.346 1011.46 349.164C1011.21 348.982 1010.88 348.891 1010.46 348.891C1010.15 348.891 1009.87 348.958 1009.62 349.094C1009.39 349.224 1009.18 349.414 1009.02 349.664C1008.86 349.914 1008.74 350.216 1008.65 350.57C1008.57 350.919 1008.52 351.312 1008.52 351.75V352.062C1008.52 352.432 1008.57 352.776 1008.67 353.094C1008.78 353.406 1008.93 353.68 1009.12 353.914C1009.32 354.148 1009.56 354.333 1009.84 354.469C1010.12 354.599 1010.45 354.664 1010.8 354.664C1011.26 354.664 1011.66 354.573 1012.02 354.391C1012.37 354.208 1012.68 353.951 1012.94 353.617L1013.93 354.578C1013.75 354.844 1013.51 355.099 1013.22 355.344C1012.93 355.583 1012.57 355.779 1012.15 355.93C1011.73 356.081 1011.25 356.156 1010.7 356.156ZM1019.42 347.547V348.922H1014.66V347.547H1019.42ZM1016.03 345.477H1017.91V353.664C1017.91 353.924 1017.95 354.125 1018.02 354.266C1018.1 354.401 1018.21 354.492 1018.34 354.539C1018.48 354.586 1018.64 354.609 1018.82 354.609C1018.95 354.609 1019.08 354.602 1019.2 354.586C1019.32 354.57 1019.41 354.555 1019.48 354.539L1019.49 355.977C1019.34 356.023 1019.15 356.065 1018.95 356.102C1018.74 356.138 1018.51 356.156 1018.24 356.156C1017.81 356.156 1017.43 356.081 1017.09 355.93C1016.76 355.773 1016.5 355.521 1016.31 355.172C1016.12 354.823 1016.03 354.359 1016.03 353.781V345.477ZM1022.77 349.156V356H1020.88V347.547H1022.68L1022.77 349.156ZM1025.35 347.492L1025.34 349.242C1025.22 349.221 1025.1 349.206 1024.96 349.195C1024.83 349.185 1024.7 349.18 1024.57 349.18C1024.25 349.18 1023.96 349.227 1023.72 349.32C1023.47 349.409 1023.27 349.539 1023.1 349.711C1022.94 349.878 1022.82 350.081 1022.73 350.32C1022.64 350.56 1022.59 350.828 1022.57 351.125L1022.14 351.156C1022.14 350.625 1022.19 350.133 1022.3 349.68C1022.4 349.227 1022.56 348.828 1022.77 348.484C1022.98 348.141 1023.24 347.872 1023.56 347.68C1023.89 347.487 1024.26 347.391 1024.68 347.391C1024.79 347.391 1024.92 347.401 1025.05 347.422C1025.18 347.443 1025.28 347.466 1025.35 347.492ZM1028.55 347.547V356H1026.66V347.547H1028.55ZM1026.53 345.328C1026.53 345.042 1026.62 344.805 1026.81 344.617C1027.01 344.424 1027.27 344.328 1027.61 344.328C1027.94 344.328 1028.21 344.424 1028.4 344.617C1028.59 344.805 1028.69 345.042 1028.69 345.328C1028.69 345.609 1028.59 345.844 1028.4 346.031C1028.21 346.219 1027.94 346.312 1027.61 346.312C1027.27 346.312 1027.01 346.219 1026.81 346.031C1026.62 345.844 1026.53 345.609 1026.53 345.328ZM1034.06 354.656C1034.37 354.656 1034.65 354.596 1034.89 354.477C1035.14 354.352 1035.34 354.18 1035.49 353.961C1035.65 353.742 1035.73 353.49 1035.75 353.203H1037.52C1037.51 353.75 1037.35 354.247 1037.04 354.695C1036.73 355.143 1036.31 355.5 1035.8 355.766C1035.28 356.026 1034.71 356.156 1034.09 356.156C1033.44 356.156 1032.88 356.047 1032.4 355.828C1031.92 355.604 1031.52 355.297 1031.2 354.906C1030.89 354.516 1030.65 354.065 1030.48 353.555C1030.33 353.044 1030.25 352.497 1030.25 351.914V351.641C1030.25 351.057 1030.33 350.51 1030.48 350C1030.65 349.484 1030.89 349.031 1031.2 348.641C1031.52 348.25 1031.92 347.945 1032.4 347.727C1032.88 347.503 1033.44 347.391 1034.08 347.391C1034.76 347.391 1035.35 347.526 1035.86 347.797C1036.37 348.062 1036.77 348.435 1037.06 348.914C1037.36 349.388 1037.51 349.94 1037.52 350.57H1035.75C1035.73 350.258 1035.66 349.977 1035.52 349.727C1035.38 349.471 1035.19 349.268 1034.94 349.117C1034.69 348.966 1034.4 348.891 1034.05 348.891C1033.67 348.891 1033.36 348.969 1033.11 349.125C1032.86 349.276 1032.66 349.484 1032.52 349.75C1032.38 350.01 1032.28 350.305 1032.22 350.633C1032.16 350.956 1032.13 351.292 1032.13 351.641V351.914C1032.13 352.263 1032.16 352.602 1032.22 352.93C1032.28 353.258 1032.38 353.552 1032.52 353.812C1032.66 354.068 1032.86 354.273 1033.11 354.43C1033.36 354.581 1033.68 354.656 1034.06 354.656ZM1038.61 351.867V351.688C1038.61 351.078 1038.7 350.513 1038.88 349.992C1039.05 349.466 1039.31 349.01 1039.64 348.625C1039.98 348.234 1040.39 347.932 1040.88 347.719C1041.36 347.5 1041.92 347.391 1042.53 347.391C1043.15 347.391 1043.7 347.5 1044.19 347.719C1044.68 347.932 1045.09 348.234 1045.43 348.625C1045.77 349.01 1046.03 349.466 1046.2 349.992C1046.38 350.513 1046.47 351.078 1046.47 351.688V351.867C1046.47 352.477 1046.38 353.042 1046.2 353.562C1046.03 354.083 1045.77 354.539 1045.43 354.93C1045.09 355.315 1044.68 355.617 1044.2 355.836C1043.71 356.049 1043.16 356.156 1042.55 356.156C1041.93 356.156 1041.37 356.049 1040.88 355.836C1040.4 355.617 1039.99 355.315 1039.65 354.93C1039.31 354.539 1039.05 354.083 1038.88 353.562C1038.7 353.042 1038.61 352.477 1038.61 351.867ZM1040.49 351.688V351.867C1040.49 352.247 1040.53 352.607 1040.61 352.945C1040.69 353.284 1040.81 353.581 1040.98 353.836C1041.14 354.091 1041.36 354.292 1041.62 354.438C1041.88 354.583 1042.19 354.656 1042.55 354.656C1042.9 354.656 1043.2 354.583 1043.45 354.438C1043.71 354.292 1043.93 354.091 1044.09 353.836C1044.26 353.581 1044.38 353.284 1044.46 352.945C1044.54 352.607 1044.59 352.247 1044.59 351.867V351.688C1044.59 351.312 1044.54 350.958 1044.46 350.625C1044.38 350.286 1044.26 349.987 1044.09 349.727C1043.92 349.466 1043.71 349.263 1043.45 349.117C1043.19 348.966 1042.89 348.891 1042.53 348.891C1042.18 348.891 1041.87 348.966 1041.61 349.117C1041.35 349.263 1041.14 349.466 1040.98 349.727C1040.81 349.987 1040.69 350.286 1040.61 350.625C1040.53 350.958 1040.49 351.312 1040.49 351.688ZM1047.69 351.867V351.688C1047.69 351.078 1047.78 350.513 1047.95 349.992C1048.13 349.466 1048.39 349.01 1048.72 348.625C1049.06 348.234 1049.47 347.932 1049.95 347.719C1050.44 347.5 1050.99 347.391 1051.61 347.391C1052.23 347.391 1052.78 347.5 1053.27 347.719C1053.76 347.932 1054.17 348.234 1054.51 348.625C1054.85 349.01 1055.1 349.466 1055.28 349.992C1055.46 350.513 1055.55 351.078 1055.55 351.688V351.867C1055.55 352.477 1055.46 353.042 1055.28 353.562C1055.1 354.083 1054.85 354.539 1054.51 354.93C1054.17 355.315 1053.76 355.617 1053.27 355.836C1052.79 356.049 1052.24 356.156 1051.62 356.156C1051.01 356.156 1050.45 356.049 1049.96 355.836C1049.48 355.617 1049.07 355.315 1048.73 354.93C1048.39 354.539 1048.13 354.083 1047.95 353.562C1047.78 353.042 1047.69 352.477 1047.69 351.867ZM1049.57 351.688V351.867C1049.57 352.247 1049.61 352.607 1049.69 352.945C1049.77 353.284 1049.89 353.581 1050.05 353.836C1050.22 354.091 1050.43 354.292 1050.7 354.438C1050.96 354.583 1051.27 354.656 1051.62 354.656C1051.97 354.656 1052.28 354.583 1052.53 354.438C1052.79 354.292 1053.01 354.091 1053.17 353.836C1053.34 353.581 1053.46 353.284 1053.54 352.945C1053.62 352.607 1053.66 352.247 1053.66 351.867V351.688C1053.66 351.312 1053.62 350.958 1053.54 350.625C1053.46 350.286 1053.34 349.987 1053.16 349.727C1053 349.466 1052.78 349.263 1052.52 349.117C1052.27 348.966 1051.96 348.891 1051.61 348.891C1051.26 348.891 1050.95 348.966 1050.69 349.117C1050.43 349.263 1050.22 349.466 1050.05 349.727C1049.89 349.987 1049.77 350.286 1049.69 350.625C1049.61 350.958 1049.57 351.312 1049.57 351.688ZM1059.14 344V356H1057.25V344H1059.14Z" fill="white"/>
<defs>
<linearGradient id="paint0_linear_373_2773" x1="609" y1="328.38" x2="609" y2="800.773" gradientUnits="userSpaceOnUse">
<stop stop-color="#929999" stop-opacity="0"/>
<stop offset="0.4905" stop-color="#F4FFFF"/>
<stop offset="0.98" stop-color="#F4FFFF" stop-opacity="0"/>
</linearGradient>
<linearGradient id="paint1_linear_373_2773" x1="609" y1="287.622" x2="609" y2="850.569" gradientUnits="userSpaceOnUse">
<stop stop-color="#929999" stop-opacity="0"/>
<stop offset="0.4905" stop-color="#F4FFFF"/>
<stop offset="0.98" stop-color="#F4FFFF" stop-opacity="0"/>
</linearGradient>
<linearGradient id="paint2_linear_373_2773" x1="609" y1="238.713" x2="609" y2="910.325" gradientUnits="userSpaceOnUse">
<stop stop-color="#929999" stop-opacity="0"/>
<stop offset="0.4905" stop-color="#F4FFFF"/>
<stop offset="0.98" stop-color="#F4FFFF" stop-opacity="0"/>
</linearGradient>
<linearGradient id="paint3_linear_373_2773" x1="609" y1="173.5" x2="609" y2="990" gradientUnits="userSpaceOnUse">
<stop stop-color="#929999" stop-opacity="0"/>
<stop offset="0.4905" stop-color="#F4FFFF"/>
<stop offset="0.98" stop-color="#F4FFFF" stop-opacity="0"/>
</linearGradient>
<linearGradient id="paint4_linear_373_2773" x1="922" y1="499" x2="297.5" y2="499" gradientUnits="userSpaceOnUse">
<stop offset="0.005" stop-color="#263972"/>
<stop offset="0.50078" stop-color="#04060C"/>
<stop offset="1" stop-color="#263972"/>
</linearGradient>
<radialGradient id="paint5_radial_373_2773" cx="0" cy="0" r="1" gradientUnits="userSpaceOnUse" gradientTransform="translate(601.5 510.978) rotate(14.8826) scale(125.2 261.274)">
<stop stop-color="#366DB5"/>
<stop offset="1" stop-color="#A0FFFF"/>
</radialGradient>
<radialGradient id="paint6_radial_373_2773" cx="0" cy="0" r="1" gradientUnits="userSpaceOnUse" gradientTransform="translate(605.869 614.025) rotate(9.18836) scale(57.2631 75.8869)">
<stop stop-color="#366DB5"/>
<stop offset="1" stop-color="#A0FFFF"/>
</radialGradient>
<linearGradient id="paint7_linear_373_2773" x1="7.5" y1="769.5" x2="155.739" y2="781.725" gradientUnits="userSpaceOnUse">
<stop stop-color="#35415A" stop-opacity="0"/>
<stop offset="0.945" stop-color="white"/>
</linearGradient>
<linearGradient id="paint8_linear_373_2773" x1="-31.3349" y1="501.5" x2="148.949" y2="519.642" gradientUnits="userSpaceOnUse">
<stop stop-color="#35415A" stop-opacity="0"/>
<stop offset="0.945" stop-color="white"/>
</linearGradient>
<linearGradient id="paint9_linear_373_2773" x1="186.5" y1="420" x2="397.225" y2="456.77" gradientUnits="userSpaceOnUse">
<stop stop-color="#35415A" stop-opacity="0"/>
<stop offset="0.945" stop-color="white"/>
</linearGradient>
<linearGradient id="paint10_linear_373_2773" x1="98.5" y1="544" x2="225.041" y2="558.314" gradientUnits="userSpaceOnUse">
<stop stop-color="#35415A" stop-opacity="0"/>
<stop offset="0.945" stop-color="white"/>
</linearGradient>
<linearGradient id="paint11_linear_373_2773" x1="1230.5" y1="527" x2="1080.61" y2="495.521" gradientUnits="userSpaceOnUse">
<stop stop-color="#35415A" stop-opacity="0"/>
<stop offset="0.945" stop-color="white"/>
</linearGradient>
<linearGradient id="paint12_linear_373_2773" x1="1099.37" y1="699" x2="950.541" y2="667.983" gradientUnits="userSpaceOnUse">
<stop stop-color="#35415A" stop-opacity="0"/>
<stop offset="0.945" stop-color="white"/>
</linearGradient>
<linearGradient id="paint13_linear_373_2773" x1="1092.5" y1="927.5" x2="962.5" y2="845" gradientUnits="userSpaceOnUse">
<stop stop-color="#35415A" stop-opacity="0"/>
<stop offset="0.945" stop-color="white"/>
</linearGradient>
<linearGradient id="paint14_linear_373_2773" x1="1076" y1="323" x2="939.801" y2="333.236" gradientUnits="userSpaceOnUse">
<stop stop-color="#35415A" stop-opacity="0"/>
<stop offset="0.945" stop-color="white"/>
</linearGradient>
</defs>
</svg>
